<svg width="16" height="16" viewBox="0 0 16 16" fill="none" xmlns="http://www.w3.org/2000/svg">
<path d="M10.5046 4.17897L10.5732 5.60105C10.5947 6.04282 10.184 6.356 9.80949 6.18316L8.60475 5.62663C8.41449 5.53883 8.28541 5.34249 8.26995 5.1185L8.16776 3.64387C8.13616 3.19035 8.56105 2.8668 8.94224 3.05416L10.1806 3.66323C10.3688 3.75587 10.4939 3.95497 10.5046 4.17966V4.17897ZM12.8986 4.8392L11.6603 4.23013C11.2798 4.04277 10.8549 4.36701 10.8858 4.81984L10.988 6.29447C11.0035 6.51846 11.1325 6.7148 11.3228 6.8026L12.5275 7.35913C12.902 7.53197 13.3121 7.21948 13.2913 6.77702L13.2227 5.35494C13.2119 5.13025 13.0869 4.93114 12.8986 4.83851V4.8392ZM15.6066 6.0366L14.3683 5.42753C13.9878 5.24017 13.5629 5.56441 13.5938 6.01724L13.696 7.49187C13.7114 7.71586 13.8405 7.9122 14.0308 8L15.2355 8.55653C15.61 8.72937 16.0201 8.41688 15.9992 7.97442L15.9307 6.55234C15.9199 6.32765 15.7949 6.12855 15.6066 6.03591V6.0366ZM7.05849 3.05347L5.82013 3.66254C5.63189 3.75518 5.50685 3.95428 5.49609 4.17897L5.42752 5.60105C5.406 6.04282 5.81677 6.356 6.19123 6.18316L7.39597 5.62663C7.58623 5.53883 7.71531 5.34249 7.73077 5.1185L7.83296 3.64387C7.86456 3.19035 7.43967 2.8668 7.05849 3.05416V3.05347ZM4.34043 4.23013L3.10207 4.8392C2.91383 4.93184 2.78879 5.13094 2.77803 5.35563L2.70946 6.77771C2.68794 7.21948 3.09871 7.53266 3.47318 7.35982L4.67791 6.80329C4.86817 6.71549 4.99725 6.51915 5.01271 6.29516L5.1149 4.82053C5.1465 4.36701 4.72161 4.04346 4.34043 4.23082V4.23013ZM1.63178 5.42753L0.393426 6.0366C0.205186 6.12924 0.0801403 6.32834 0.0693837 6.55303L0.000810351 7.97511C-0.0207029 8.41688 0.390065 8.73006 0.764529 8.55722L1.96927 8.00069C2.15953 7.91289 2.2886 7.71655 2.30407 7.49256L2.40626 6.01793C2.43785 5.56441 2.01297 5.24086 1.63178 5.42822V5.42753ZM10.1806 7.23469L8.94224 6.62562C8.56172 6.43827 8.13683 6.7625 8.16776 7.21533L8.26995 8.68996C8.28541 8.91395 8.41449 9.11029 8.60475 9.19809L9.80949 9.75462C10.184 9.92746 10.594 9.61497 10.5732 9.17251L10.5046 7.75043C10.4939 7.52574 10.3688 7.32664 10.1806 7.234V7.23469ZM12.8986 8.41135L11.6603 7.80228C11.2798 7.61493 10.8549 7.93916 10.8858 8.39199L10.988 9.86662C11.0035 10.0906 11.1325 10.287 11.3228 10.3748L12.5275 10.9313C12.902 11.1041 13.3121 10.7916 13.2913 10.3492L13.2227 8.92709C13.2119 8.7024 13.0869 8.5033 12.8986 8.41066V8.41135ZM7.05849 6.62631L5.82013 7.23538C5.63189 7.32802 5.50685 7.52713 5.49609 7.75181L5.42752 9.1739C5.406 9.61566 5.81677 9.92884 6.19123 9.75601L7.39597 9.19948C7.58623 9.11168 7.71531 8.91534 7.73077 8.69134L7.83296 7.21671C7.86456 6.7632 7.43967 6.43965 7.05849 6.627V6.62631ZM4.34043 7.80228L3.10207 8.41135C2.91383 8.50399 2.78879 8.70309 2.77803 8.92778L2.70946 10.3499C2.68794 10.7916 3.09871 11.1048 3.47318 10.932L4.67791 10.3754C4.86817 10.2876 4.99725 10.0913 5.01271 9.86731L5.1149 8.39268C5.1465 7.93916 4.72161 7.61562 4.34043 7.80297V7.80228ZM10.1806 10.831L8.94224 10.222C8.56172 10.0346 8.13683 10.3589 8.16776 10.8117L8.26995 12.2863C8.28541 12.5103 8.41449 12.7066 8.60475 12.7944L9.80949 13.351C10.184 13.5238 10.594 13.2113 10.5732 12.7689L10.5046 11.3468C10.4939 11.1221 10.3688 10.923 10.1806 10.8303V10.831ZM7.05849 10.222L5.82013 10.831C5.63189 10.9237 5.50685 11.1228 5.49609 11.3475L5.42752 12.7696C5.406 13.2113 5.81677 13.5245 6.19123 13.3517L7.39597 12.7951C7.58623 12.7073 7.71531 12.511 7.73077 12.287L7.83296 10.8124C7.86456 10.3589 7.43967 10.0353 7.05849 10.2227V10.222Z" fill="url(#paint0_radial_48_18)"/>
<defs>
<radialGradient id="paint0_radial_48_18" cx="0" cy="0" r="1" gradientUnits="userSpaceOnUse" gradientTransform="translate(8.00036 8.1998) scale(6.69262 6.88229)">
<stop stop-color="#E84E1B"/>
<stop offset="1" stop-color="#BD1622"/>
</radialGradient>
</defs>
</svg>
