<svg width="48" height="48" viewBox="0 0 48 48" fill="none" xmlns="http://www.w3.org/2000/svg">
<path d="M31.5139 12.4151L31.7196 16.5344C31.7842 17.8141 30.5519 18.7213 29.4285 18.2206L25.8142 16.6085C25.2435 16.3542 24.8562 15.7855 24.8098 15.1366L24.5033 10.8651C24.4085 9.55139 25.6831 8.61417 26.8267 9.15687L30.5418 10.9212C31.1065 11.1895 31.4816 11.7663 31.5139 12.4171V12.4151ZM38.6959 14.3276L34.9809 12.5633C33.8393 12.0206 32.5647 12.9598 32.6575 14.2715L32.964 18.543C33.0104 19.1919 33.3976 19.7606 33.9684 20.0149L37.5826 21.627C38.706 22.1277 39.9363 21.2225 39.8738 19.9408L39.6681 15.8215C39.6358 15.1707 39.2607 14.5939 38.6959 14.3256V14.3276ZM46.8199 17.7961L43.1048 16.0318C41.9633 15.4891 40.6886 16.4283 40.7814 17.74L41.0879 22.0115C41.1343 22.6604 41.5216 23.2291 42.0923 23.4834L45.7066 25.0955C46.83 25.5962 48.0602 24.691 47.9977 23.4093L47.792 19.29C47.7597 18.6392 47.3846 18.0624 46.8199 17.7941V17.7961ZM21.1755 9.15487L17.4604 10.9192C16.8957 11.1875 16.5205 11.7643 16.4883 12.4151L16.2825 16.5344C16.218 17.8141 17.4503 18.7213 18.5737 18.2206L22.1879 16.6085C22.7587 16.3542 23.1459 15.7855 23.1923 15.1366L23.4989 10.8651C23.5937 9.55139 22.319 8.61417 21.1755 9.15687V9.15487ZM13.0213 12.5633L9.30622 14.3276C8.7415 14.5959 8.36636 15.1727 8.33409 15.8235L8.12837 19.9428C8.06383 21.2225 9.29613 22.1297 10.4195 21.629L14.0337 20.0169C14.6045 19.7626 14.9918 19.1939 15.0381 18.545L15.3447 14.2735C15.4395 12.9598 14.1648 12.0226 13.0213 12.5653V12.5633ZM4.89534 16.0318L1.18028 17.7961C0.615557 18.0644 0.240421 18.6412 0.208151 19.292L0.00243105 23.4113C-0.0621086 24.691 1.17019 25.5982 2.29359 25.0975L5.90781 23.4854C6.47858 23.2311 6.86581 22.6624 6.9122 22.0135L7.21877 17.742C7.31356 16.4283 6.0389 15.4911 4.89534 16.0338V16.0318ZM30.5418 21.2666L26.8267 19.5023C25.6852 18.9596 24.4105 19.8988 24.5033 21.2105L24.8098 25.482C24.8562 26.1309 25.2435 26.6996 25.8142 26.9539L29.4285 28.566C30.5519 29.0667 31.7821 28.1615 31.7196 26.8798L31.5139 22.7605C31.4816 22.1097 31.1065 21.5329 30.5418 21.2646V21.2666ZM38.6959 24.675L34.9809 22.9107C33.8393 22.368 32.5647 23.3072 32.6575 24.6189L32.964 28.8904C33.0104 29.5393 33.3976 30.108 33.9684 30.3623L37.5826 31.9744C38.706 32.4751 39.9363 31.5699 39.8738 30.2882L39.6681 26.1689C39.6358 25.5181 39.2607 24.9413 38.6959 24.673V24.675ZM21.1755 19.5043L17.4604 21.2686C16.8957 21.5369 16.5205 22.1137 16.4883 22.7645L16.2825 26.8838C16.218 28.1635 17.4503 29.0707 18.5737 28.57L22.1879 26.9579C22.7587 26.7036 23.1459 26.1349 23.1923 25.486L23.4989 21.2145C23.5937 19.9008 22.319 18.9636 21.1755 19.5063V19.5043ZM13.0213 22.9107L9.30622 24.675C8.7415 24.9433 8.36636 25.5201 8.33409 26.1709L8.12837 30.2902C8.06383 31.5699 9.29613 32.4771 10.4195 31.9764L14.0337 30.3643C14.6045 30.11 14.9918 29.5413 15.0381 28.8924L15.3447 24.6209C15.4395 23.3072 14.1648 22.37 13.0213 22.9127V22.9107ZM30.5418 31.6841L26.8267 29.9198C25.6852 29.3771 24.4105 30.3163 24.5033 31.628L24.8098 35.8995C24.8562 36.5484 25.2435 37.1171 25.8142 37.3714L29.4285 38.9835C30.5519 39.4842 31.7821 38.579 31.7196 37.2973L31.5139 33.178C31.4816 32.5271 31.1065 31.9504 30.5418 31.682V31.6841ZM21.1755 29.9198L17.4604 31.6841C16.8957 31.9524 16.5205 32.5291 16.4883 33.18L16.2825 37.2993C16.218 38.579 17.4503 39.4862 18.5737 38.9855L22.1879 37.3734C22.7587 37.1191 23.1459 36.5504 23.1923 35.9015L23.4989 31.63C23.5937 30.3163 22.319 29.3791 21.1755 29.9218V29.9198Z" fill="url(#paint0_radial_48_19)"/>
<defs>
<radialGradient id="paint0_radial_48_19" cx="0" cy="0" r="1" gradientUnits="userSpaceOnUse" gradientTransform="translate(24.0011 24.0622) scale(20.0779 19.9358)">
<stop stop-color="#E84E1B"/>
<stop offset="1" stop-color="#BD1622"/>
</radialGradient>
</defs>
</svg>
