<svg width="128" height="128" viewBox="0 0 128 128" fill="none" xmlns="http://www.w3.org/2000/svg">
<path d="M84.0371 33.1072L84.5856 44.0925C84.7577 47.505 81.4716 49.9242 78.4759 48.5891L68.838 44.2901C67.3159 43.6118 66.2833 42.0952 66.1596 40.3649L65.3421 28.9737C65.0893 25.4704 68.4884 22.9711 71.5379 24.4183L81.4447 29.1233C82.9506 29.8389 83.951 31.3769 84.0371 33.1126V33.1072ZM103.189 38.2073L93.2824 33.5024C90.2382 32.0552 86.8391 34.5598 87.0865 38.0578L87.9041 49.4489C88.0278 51.1792 89.0604 52.6959 90.5824 53.3741L100.22 57.6732C103.216 59.0083 106.497 56.5944 106.33 53.1765L105.782 42.1913C105.695 40.4556 104.695 38.9176 103.189 38.202V38.2073ZM124.853 47.4569L114.946 42.752C111.902 41.3048 108.503 43.8094 108.75 47.3074L109.568 58.6985C109.692 60.4288 110.724 61.9455 112.246 62.6237L121.884 66.9228C124.88 68.2579 128.161 65.844 127.994 62.4262L127.445 51.4409C127.359 49.7053 126.359 48.1672 124.853 47.4516V47.4569ZM56.4679 24.413L46.5611 29.1179C45.0551 29.8335 44.0548 31.3716 43.9687 33.1072L43.4201 44.0925C43.248 47.505 46.5342 49.9242 49.5299 48.5891L59.1678 44.2901C60.6898 43.6118 61.7225 42.0952 61.8462 40.3649L62.6637 28.9737C62.9165 25.4704 59.5174 22.9711 56.4679 24.4183V24.413ZM34.7234 33.5024L24.8166 38.2073C23.3107 38.9229 22.3103 40.461 22.2242 42.1966L21.6757 53.1819C21.5035 56.5944 24.7897 59.0136 27.7854 57.6785L37.4233 53.3795C38.9454 52.7012 39.978 51.1846 40.1017 49.4543L40.9192 38.0631C41.172 34.5598 37.7729 32.0605 34.7234 33.5078V33.5024ZM13.0542 42.752L3.14741 47.4569C1.64149 48.1726 0.641122 49.7106 0.555069 51.4462L0.00648281 62.4315C-0.165623 65.844 3.12052 68.2632 6.11623 66.9281L15.7541 62.6291C17.2762 61.9509 18.3088 60.4342 18.4325 58.7039L19.25 47.3128C19.5028 43.8094 16.1037 41.3101 13.0542 42.7574V42.752ZM81.4447 56.7119L71.5379 52.007C68.4938 50.5597 65.0947 53.0644 65.3421 56.5624L66.1596 67.9535C66.2833 69.6838 67.3159 71.2005 68.838 71.8787L78.4759 76.1777C81.4716 77.5129 84.7524 75.099 84.5856 71.6811L84.0371 60.6959C83.951 58.9602 82.9506 57.4222 81.4447 56.7066V56.7119ZM103.189 65.8013L93.2824 61.0964C90.2382 59.6491 86.8391 62.1538 87.0865 65.6518L87.9041 77.0429C88.0278 78.7732 89.0604 80.2899 90.5824 80.9681L100.22 85.2672C103.216 86.6023 106.497 84.1884 106.33 80.7705L105.782 69.7853C105.695 68.0496 104.695 66.5116 103.189 65.796V65.8013ZM56.4679 52.0123L46.5611 56.7172C45.0551 57.4329 44.0548 58.9709 43.9687 60.7065L43.4201 71.6918C43.248 75.1043 46.5342 77.5235 49.5299 76.1884L59.1678 71.8894C60.6898 71.2112 61.7225 69.6945 61.8462 67.9642L62.6637 56.573C62.9165 53.0697 59.5174 50.5704 56.4679 52.0177V52.0123ZM34.7234 61.0964L24.8166 65.8013C23.3107 66.5169 22.3103 68.055 22.2242 69.7906L21.6757 80.7759C21.5035 84.1884 24.7897 86.6076 27.7854 85.2725L37.4233 80.9735C38.9454 80.2952 39.978 78.7785 40.1017 77.0482L40.9192 65.6571C41.172 62.1538 37.7729 59.6545 34.7234 61.1017V61.0964ZM81.4447 84.4928L71.5379 79.7879C68.4938 78.3406 65.0947 80.8453 65.3421 84.3433L66.1596 95.7344C66.2833 97.4647 67.3159 98.9814 68.838 99.6596L78.4759 103.959C81.4716 105.294 84.7524 102.88 84.5856 99.462L84.0371 88.4767C83.951 86.7411 82.9506 85.2031 81.4447 84.4874V84.4928ZM56.4679 79.7879L46.5611 84.4928C45.0551 85.2084 44.0548 86.7464 43.9687 88.4821L43.4201 99.4674C43.248 102.88 46.5342 105.299 49.5299 103.964L59.1678 99.6649C60.6898 98.9867 61.7225 97.47 61.8462 95.7397L62.6637 84.3486C62.9165 80.8453 59.5174 78.346 56.4679 79.7932V79.7879Z" fill="url(#paint0_radial_48_20)"/>
<defs>
<radialGradient id="paint0_radial_48_20" cx="0" cy="0" r="1" gradientUnits="userSpaceOnUse" gradientTransform="translate(64.0029 64.1671) scale(53.541 53.1639)">
<stop stop-color="#E84E1B"/>
<stop offset="1" stop-color="#BD1622"/>
</radialGradient>
</defs>
</svg>
